<svg width="38" height="40" viewBox="0 0 38 40" fill="none" xmlns="http://www.w3.org/2000/svg">
<path fill-rule="evenodd" clip-rule="evenodd" d="M4.41662 14.75C4.41662 10.8823 5.95308 7.17293 8.68798 4.43803C11.4229 1.70312 15.1322 0.166668 19 0.166668C22.8677 0.166668 26.577 1.70312 29.3119 4.43803C32.0468 7.17293 33.5833 10.8823 33.5833 14.75V22.5917L37.3791 30.1833C37.5539 30.5328 37.6364 30.921 37.6188 31.3113C37.6013 31.7016 37.4842 32.0809 37.2788 32.4132C37.0734 32.7455 36.7865 33.0198 36.4452 33.21C36.104 33.4002 35.7198 33.5001 35.3291 33.5H27.0708C26.6074 35.288 25.5633 36.8715 24.1026 38.0019C22.6418 39.1324 20.847 39.7457 19 39.7457C17.1529 39.7457 15.3581 39.1324 13.8973 38.0019C12.4366 36.8715 11.3925 35.288 10.9291 33.5H2.67079C2.28012 33.5001 1.89592 33.4002 1.55468 33.21C1.21344 33.0198 0.926494 32.7455 0.721092 32.4132C0.515691 32.0809 0.398654 31.7016 0.381099 31.3113C0.363544 30.921 0.446053 30.5328 0.62079 30.1833L4.41662 22.5917V14.75ZM15.3916 33.5C15.7573 34.1334 16.2833 34.6593 16.9167 35.025C17.5501 35.3906 18.2686 35.5831 19 35.5831C19.7313 35.5831 20.4498 35.3906 21.0832 35.025C21.7166 34.6593 22.2426 34.1334 22.6083 33.5H15.3916ZM19 4.33333C16.2373 4.33333 13.5878 5.4308 11.6343 7.38431C9.68076 9.33781 8.58329 11.9873 8.58329 14.75V22.5917C8.58325 23.2382 8.43275 23.8758 8.14371 24.4542L5.70621 29.3333H32.2958L29.8583 24.4542C29.5685 23.876 29.4173 23.2384 29.4166 22.5917V14.75C29.4166 11.9873 28.3192 9.33781 26.3657 7.38431C24.4121 5.4308 21.7626 4.33333 19 4.33333Z" fill="#53485F" fill-opacity="0.8"/>
</svg>
