<svg width="28" height="36" viewBox="0 0 28 36" fill="none" xmlns="http://www.w3.org/2000/svg">
<path d="M26.582 16.3281C25.8237 14.6213 24.7213 13.0894 23.3438 11.8281L22.207 10.7852C22.1684 10.7507 22.122 10.7263 22.0717 10.714C22.0215 10.7017 21.969 10.7019 21.9189 10.7146C21.8687 10.7274 21.8225 10.7522 21.7842 10.787C21.7459 10.8218 21.7167 10.8654 21.6992 10.9141L21.1914 12.3711C20.875 13.2852 20.293 14.2188 19.4688 15.1367C19.4141 15.1953 19.3516 15.211 19.3086 15.2149C19.2656 15.2188 19.1992 15.211 19.1406 15.1563C19.0859 15.1094 19.0586 15.0391 19.0625 14.9688C19.207 12.6172 18.5039 9.96486 16.9648 7.07814C15.6914 4.6797 13.9219 2.80861 11.7109 1.50392L10.0977 0.554702C9.88672 0.429702 9.61719 0.593765 9.62891 0.839858L9.71484 2.71486C9.77344 3.99611 9.625 5.12892 9.27344 6.07033C8.84375 7.22267 8.22656 8.29298 7.4375 9.25392C6.88838 9.92175 6.26599 10.5258 5.58203 11.0547C3.93479 12.321 2.59536 13.9435 1.66406 15.8008C0.735054 17.6743 0.251133 19.737 0.25 21.8281C0.25 23.6719 0.613281 25.457 1.33203 27.1406C2.02604 28.7616 3.02757 30.2327 4.28125 31.4727C5.54688 32.7227 7.01562 33.707 8.65234 34.3906C10.3477 35.1016 12.1445 35.461 14 35.461C15.8555 35.461 17.6523 35.1016 19.3477 34.3945C20.9803 33.715 22.465 32.7238 23.7188 31.4766C24.9844 30.2266 25.9766 28.7656 26.668 27.1445C27.3856 25.4656 27.7538 23.658 27.75 21.832C27.75 19.9258 27.3594 18.0742 26.582 16.3281ZM21.8516 29.582C19.7539 31.6602 16.9688 32.8008 14 32.8008C11.0312 32.8008 8.24609 31.6602 6.14844 29.582C4.05859 27.5078 2.90625 24.7578 2.90625 21.832C2.90625 20.1328 3.28906 18.5039 4.04297 16.9883C4.77734 15.5078 5.87109 14.1836 7.19922 13.1641C8.04624 12.5164 8.8145 11.7717 9.48828 10.9453C10.4648 9.75392 11.2305 8.4258 11.7617 7.00001C11.9796 6.41188 12.138 5.80336 12.2344 5.18361C13.1758 6.0508 13.9648 7.09767 14.625 8.32423C15.9297 10.7695 16.5312 12.9453 16.4141 14.7969C16.3861 15.233 16.4573 15.6697 16.6224 16.0743C16.7875 16.4789 17.0421 16.8408 17.3672 17.1328C17.6489 17.3873 17.9784 17.5833 18.3365 17.7093C18.6946 17.8354 19.0741 17.8891 19.4531 17.8672C20.2227 17.8281 20.9297 17.4883 21.4453 16.9141C21.9648 16.332 22.4141 15.7383 22.7891 15.1328C23.3359 15.832 23.793 16.5938 24.1562 17.4141C24.7773 18.8125 25.0938 20.3008 25.0938 21.832C25.0938 24.7578 23.9414 27.5117 21.8516 29.582Z" fill="#F5EFFB" fill-opacity="0.8"/>
</svg>
