<svg width="30" height="34" viewBox="0 0 30 34" fill="none" xmlns="http://www.w3.org/2000/svg">
<path d="M16.4283 3.76667L26.205 11.795C26.755 12.245 27.0833 12.9383 27.0833 13.6783V28.35C27.0833 29.7067 26.02 30.75 24.7783 30.75H20.4167V22.8333C20.4167 21.6178 19.9338 20.452 19.0742 19.5924C18.2147 18.7329 17.0489 18.25 15.8333 18.25H14.1667C12.9511 18.25 11.7853 18.7329 10.9258 19.5924C10.0662 20.452 9.58333 21.6178 9.58333 22.8333V30.75H5.22167C3.98 30.75 2.91667 29.7067 2.91667 28.35V13.68C2.91667 12.9383 3.245 12.2467 3.795 11.7967L13.5717 3.76501C13.9728 3.43127 14.4782 3.24854 15 3.24854C15.5218 3.24854 16.0272 3.43294 16.4283 3.76667ZM24.7783 33.2483C27.4617 33.2483 29.5833 31.0233 29.5833 28.3483V13.6783C29.5853 12.9493 29.4256 12.2289 29.1158 11.569C28.806 10.909 28.3538 10.3259 27.7917 9.86167L18.0167 1.83334C17.1683 1.13234 16.1022 0.748871 15.0017 0.748871C13.9012 0.748871 12.835 1.13234 11.9867 1.83334L2.20833 9.86334C1.64623 10.3276 1.19402 10.9107 0.884223 11.5706C0.574425 12.2306 0.414744 12.951 0.416666 13.68V28.35C0.416666 31.025 2.53833 33.25 5.22167 33.25L24.7783 33.2483Z" fill="#F5EFFB" fill-opacity="0.8"/>
</svg>
