<svg width="36" height="36" viewBox="0 0 36 36" fill="none" xmlns="http://www.w3.org/2000/svg">
<path fill-rule="evenodd" clip-rule="evenodd" d="M16.82 3.51334C16.1633 4.37001 15.4233 5.69334 14.3467 7.62334L13.8017 8.60168L13.7033 8.77834C13.2033 9.67834 12.7783 10.4417 12.0967 10.9583C11.4083 11.4817 10.5683 11.67 9.59167 11.89L9.40167 11.9333L8.34167 12.1733C6.25001 12.6467 4.82501 12.9717 3.85167 13.3567C2.90001 13.73 2.70001 14.0383 2.62334 14.2833C2.54167 14.5433 2.54001 14.9417 3.10667 15.845C3.68501 16.7617 4.66001 17.905 6.08334 19.5717L6.80667 20.4167L6.93167 20.5617C7.60334 21.345 8.16334 21.9983 8.42001 22.825C8.67501 23.6467 8.59001 24.5083 8.48667 25.555L8.47001 25.75L8.36001 26.8783C8.14334 29.0983 8.00001 30.6283 8.04834 31.7283C8.09834 32.8283 8.33001 33.1317 8.51501 33.2717C8.67834 33.3967 8.98167 33.5333 9.97001 33.25C10.975 32.9633 12.3117 32.3517 14.27 31.45L15.2633 30.9933L15.445 30.91C16.3533 30.4883 17.14 30.125 18 30.125C18.86 30.125 19.6467 30.4883 20.555 30.9083C20.6139 30.9372 20.675 30.965 20.7383 30.9917L21.73 31.45C23.6883 32.3517 25.025 32.9633 26.03 33.25C27.0183 33.5333 27.3217 33.3967 27.485 33.2717C27.67 33.1317 27.9017 32.8267 27.9517 31.7283C28.0017 30.6283 27.855 29.0983 27.64 26.8783L27.53 25.75L27.5133 25.555C27.41 24.5083 27.325 23.6467 27.58 22.825C27.8367 21.9983 28.3967 21.345 29.0683 20.5617L29.1933 20.4167L29.9167 19.5717C31.34 17.905 32.315 16.7617 32.8917 15.845C33.46 14.9417 33.4583 14.545 33.3767 14.2833C33.3 14.0383 33.1 13.73 32.1483 13.3567C31.1733 12.9717 29.75 12.6467 27.6583 12.1733L26.5983 11.9333L26.4083 11.89C25.4317 11.67 24.5917 11.4817 23.9033 10.9583C23.22 10.4417 22.7983 9.68001 22.2967 8.77834L22.2 8.60168L21.6533 7.62334C20.5767 5.69334 19.8367 4.37001 19.18 3.51334C18.5233 2.65668 18.19 2.58334 18 2.58334C17.81 2.58334 17.475 2.65668 16.82 3.51334ZM14.8367 1.99334C15.6283 0.956677 16.61 0.0833435 18 0.0833435C19.39 0.0833435 20.37 0.956677 21.165 1.99334C21.945 3.01334 22.7733 4.49834 23.785 6.31334L24.3833 7.38501C25.0367 8.55834 25.205 8.80834 25.415 8.96834C25.615 9.12001 25.8767 9.20668 27.1483 9.49501L28.315 9.75834C30.275 10.2017 31.89 10.5667 33.065 11.03C34.285 11.5117 35.3533 12.22 35.765 13.5417C36.1717 14.85 35.715 16.0533 35.0083 17.175C34.3217 18.2667 33.225 19.55 31.885 21.1167L31.0933 22.0417C30.2317 23.0483 30.0517 23.295 29.9667 23.5667C29.8817 23.845 29.8883 24.1667 30.02 25.5083L30.1383 26.7383C30.3417 28.8317 30.5067 30.5383 30.4483 31.8383C30.39 33.1633 30.09 34.4333 28.9983 35.2633C27.885 36.1067 26.59 36.0133 25.34 35.6533C24.1283 35.3067 22.6183 34.6117 20.785 33.7667L19.6917 33.2633C18.495 32.7133 18.24 32.625 18 32.625C17.76 32.625 17.505 32.7133 16.3083 33.2633L15.2167 33.7667C13.3817 34.6117 11.8717 35.3067 10.66 35.6533C9.41001 36.0117 8.11501 36.1067 7.00334 35.2633C5.91001 34.4333 5.61001 33.1633 5.55167 31.84C5.49334 30.54 5.65834 28.8317 5.86167 26.74L5.98167 25.5083C6.11167 24.165 6.11834 23.845 6.03167 23.5667C5.94834 23.295 5.76834 23.05 4.90667 22.0417L4.11501 21.1167C2.77667 19.55 1.68001 18.2667 0.993339 17.1767C0.285006 16.0533 -0.171661 14.85 0.235006 13.5417C0.646672 12.22 1.71501 11.5117 2.93501 11.03C4.11001 10.5667 5.72501 10.2017 7.68501 9.75834L7.79001 9.73501L8.85001 9.49501C10.1233 9.20668 10.3833 9.12001 10.585 8.96668C10.795 8.80834 10.9633 8.55834 11.6183 7.38501L12.215 6.31334C13.2267 4.49668 14.055 3.01334 14.835 1.99334" fill="#F5EFFB" fill-opacity="0.8"/>
</svg>
